<svg width="174" height="174" viewBox="0 0 174 174" fill="none" xmlns="http://www.w3.org/2000/svg">
<rect x="26.163" y="0.115784" width="150" height="150" rx="7" transform="rotate(10 26.163 0.115784)" fill="white"/>
<path d="M25.6719 128.008C25.6719 125.534 26.6484 123.385 28.6016 121.562C30.6849 119.609 32.2474 118.307 33.2891 117.656C34.4609 116.875 35.2422 116.289 35.6328 115.898C36.2839 127.747 44.2917 133.672 59.6562 133.672C71.7656 133.672 85.8932 129.896 102.039 122.344C113.497 117.135 121.18 111.797 125.086 106.328C126.388 104.635 127.039 103.268 127.039 102.227C127.039 101.055 126.844 100.143 126.453 99.4922L45.3984 81.3281C43.0547 80.8073 40.776 79.7005 38.5625 78.0078C34.526 75.1432 32.5078 72.5391 32.5078 70.1953C32.5078 61.2109 38.888 53.0729 51.6484 45.7812C65.7109 37.8385 84.526 31.849 108.094 27.8125C113.432 26.901 117.404 26.3802 120.008 26.25C120.789 26.5104 121.961 26.7708 123.523 27.0312C125.216 27.1615 126.909 27.4219 128.602 27.8125C132.638 28.724 134.331 30.4167 133.68 32.8906C133.68 37.3177 125.216 40.8333 108.289 43.4375C86.4141 46.6927 72.7422 49.4271 67.2734 51.6406C61.9349 53.8542 58.0286 56.1328 55.5547 58.4766C53.2109 60.8203 51.974 63.6198 51.8438 66.875C51.8438 67.526 53.3411 68.2422 56.3359 69.0234C59.3307 69.8047 62.9115 70.7812 67.0781 71.9531C71.2448 72.9948 76.6484 74.4271 83.2891 76.25C99.4349 80.6771 119.227 86.276 142.664 93.0469C143.966 95.9115 144.617 98.5807 144.617 101.055C144.617 107.956 140.581 114.596 132.508 120.977C123.393 128.138 110.763 134.193 94.6172 139.141C81.2057 143.177 70.5286 145.195 62.5859 145.195C55.9453 145.195 49.6302 144.023 43.6406 141.68C37.651 139.336 33.1589 137.057 30.1641 134.844C27.1693 132.63 25.6719 130.352 25.6719 128.008Z" fill="black"/>
</svg>
